<?xml version="1.0" standalone="no"?>
<svg viewBox="0 0 200 200" xmlns="http://www.w3.org/2000/svg">
  <path fill="#be0aff" d="M33.6,-52.7C45.3,-51.4,57.9,-46,67.2,-36.6C76.4,-27.1,82.4,-13.6,78.2,-2.4C74,8.7,59.6,17.4,51.6,29C43.5,40.5,41.8,54.9,34.2,57.5C26.7,60.1,13.3,50.9,-0.3,51.4C-13.9,51.9,-27.9,62.2,-34.9,59.3C-42,56.4,-42.3,40.5,-47.6,28.4C-52.9,16.4,-63.2,8.2,-63.8,-0.3C-64.3,-8.8,-54.9,-17.6,-50.4,-30.9C-45.8,-44.2,-46,-62.1,-38.4,-65.8C-30.8,-69.5,-15.4,-59.1,-2.2,-55.2C10.9,-51.3,21.9,-54,33.6,-52.7Z" transform="translate(100 100)" />
</svg>
