<?xml version="1.0" encoding="UTF-8" standalone="no"?>
<svg
   xmlns:dc="http://purl.org/dc/elements/1.1/"
   xmlns:cc="http://creativecommons.org/ns#"
   xmlns:rdf="http://www.w3.org/1999/02/22-rdf-syntax-ns#"
   xmlns:svg="http://www.w3.org/2000/svg"
   xmlns="http://www.w3.org/2000/svg"
   xmlns:sodipodi="http://sodipodi.sourceforge.net/DTD/sodipodi-0.dtd"
   xmlns:inkscape="http://www.inkscape.org/namespaces/inkscape"
   sodipodi:docname="controller.svg"
   inkscape:version="1.0 (4035a4fb49, 2020-05-01)"
   id="svg1857"
   version="1.1"
   viewBox="0 0 210 297"
   height="297mm"
   width="210mm">
  <defs
     id="defs1851" />
  <sodipodi:namedview
     inkscape:window-maximized="1"
     inkscape:window-y="-8"
     inkscape:window-x="-8"
     inkscape:window-height="977"
     inkscape:window-width="1776"
     showgrid="false"
     inkscape:document-rotation="0"
     inkscape:current-layer="layer1"
     inkscape:document-units="mm"
     inkscape:cy="560"
     inkscape:cx="400"
     inkscape:zoom="0.33946335"
     inkscape:pageshadow="2"
     inkscape:pageopacity="0.0"
     borderopacity="1.0"
     bordercolor="#666666"
     pagecolor="#ffffff"
     id="base" />
  <metadata
     id="metadata1854">
    <rdf:RDF>
      <cc:Work
         rdf:about="">
        <dc:format>image/svg+xml</dc:format>
        <dc:type
           rdf:resource="http://purl.org/dc/dcmitype/StillImage" />
        <dc:title></dc:title>
      </cc:Work>
    </rdf:RDF>
  </metadata>
  <g
     id="layer1"
     inkscape:groupmode="layer"
     inkscape:label="Layer 1">
    <g
       style="stroke-width:0.32922"
       transform="matrix(3.0374725,0,0,3.0374725,309.65746,-138.69605)"
       id="g1797">
      <path
         d="m -74.490234,68.910156 c -2.634123,0.02463 -4.841937,1.500648 -6.578125,4.507813 -2.542602,4.403919 -4.534573,13.331134 -0.416016,15.708984 3.367724,1.944356 7.791926,-2.028862 10.960937,-4.929687 1.036379,-0.948672 2.390931,-0.98441 4.246094,-0.984375 1.855096,-3.4e-5 3.209301,0.03712 4.244141,0.984375 3.169011,2.900828 7.593215,6.874046 10.960937,4.929687 4.118557,-2.37785 2.126587,-11.305063 -0.416015,-15.708984 -1.736187,-3.00716 -3.944057,-4.483188 -6.578125,-4.507813 -0.967621,-0.0091 -1.907446,0.196569 -2.78711,0.552735 -2.181368,0.883211 -3.671514,1.498087 -5.423828,1.498047 -1.752236,4e-5 -3.2447,-0.614951 -5.425781,-1.498047 -0.879696,-0.356178 -1.819567,-0.561779 -2.787109,-0.552735 z"
         style="font-variation-settings:'wdth' 100, 'wght' 700;fill:#170b28;fill-opacity:1;stroke:none;stroke-width:3.03129;stroke-linecap:round;stroke-linejoin:round;paint-order:fill markers stroke"
         id="path1765" />
      <path
         id="path1767"
         style="font-variation-settings:'wdth' 100, 'wght' 700;fill:#9e5eff;fill-opacity:1;stroke:none;stroke-width:3.03129;stroke-linecap:round;stroke-linejoin:round;paint-order:fill markers stroke"
         d="m -74.473884,70.609352 c -1.824525,0.01706 -3.6319,1.076817 -5.122294,3.658254 -2.357545,4.083392 -3.809741,11.786975 -1.038344,13.387042 2.134784,1.232518 5.823832,-1.837682 8.962274,-4.710525 1.565004,-1.432561 3.540743,-1.430778 5.394123,-1.430743 1.853379,-3.4e-5 3.829117,-0.0018 5.394122,1.430743 3.138441,2.872845 6.82749,5.943045 8.962273,4.710525 2.771397,-1.600067 1.3192,-9.30365 -1.038344,-13.387042 -1.490394,-2.581435 -3.297769,-3.641197 -5.122294,-3.658254 -0.713945,-0.0067 -1.430522,0.146348 -2.13175,0.430268 -2.175035,0.880647 -3.96235,1.620354 -6.064007,1.620305 -2.101658,4.9e-5 -3.888974,-0.739658 -6.064008,-1.620305 -0.701229,-0.28392 -1.417806,-0.436942 -2.131751,-0.430268 z" />
      <circle
         style="font-variation-settings:'wdth' 100, 'wght' 700;fill:#ccaaff;fill-opacity:1;stroke:none;stroke-width:3.03129;stroke-linecap:round;stroke-linejoin:round;paint-order:fill markers stroke"
         id="circle1769"
         cx="-72.256302"
         cy="82.37957"
         r="2.3790696" />
      <circle
         r="1.3420391"
         cy="82.37957"
         cx="-72.256302"
         id="circle1771"
         style="font-variation-settings:'wdth' 100, 'wght' 700;fill:#170b28;fill-opacity:1;stroke:none;stroke-width:3.03132;stroke-linecap:round;stroke-linejoin:round;paint-order:fill markers stroke" />
      <circle
         r="2.3790696"
         cy="82.37957"
         cx="-60.29995"
         id="circle1773"
         style="font-variation-settings:'wdth' 100, 'wght' 700;fill:#ccaaff;fill-opacity:1;stroke:none;stroke-width:3.03129;stroke-linecap:round;stroke-linejoin:round;paint-order:fill markers stroke" />
      <circle
         style="font-variation-settings:'wdth' 100, 'wght' 700;fill:#170b28;fill-opacity:1;stroke:none;stroke-width:3.03132;stroke-linecap:round;stroke-linejoin:round;paint-order:fill markers stroke"
         id="circle1775"
         cx="-60.29995"
         cy="82.37957"
         r="1.3420391" />
      <circle
         style="font-variation-settings:'wdth' 100, 'wght' 700;fill:#ccaaff;fill-opacity:1;stroke:none;stroke-width:3.03132;stroke-linecap:round;stroke-linejoin:round;paint-order:fill markers stroke"
         id="circle1777"
         cx="-74.725578"
         cy="76.15271"
         r="3.0532229" />
      <path
         id="path1779"
         style="font-variation-settings:'wdth' 100, 'wght' 700;fill:#170b28;fill-opacity:1;stroke:none;stroke-width:3.03129;stroke-linecap:round;stroke-linejoin:round;paint-order:fill markers stroke"
         d="m -75.00077,74.160027 c -0.07835,0 -0.14143,0.241456 -0.14143,0.541451 v 1.034523 h -1.034521 c -0.299991,0 -0.541618,0.06308 -0.541618,0.141432 v 0.550543 c 0,0.07836 0.241627,0.141435 0.541618,0.141435 h 1.034521 v 1.034523 c 0,0.299987 0.06308,0.541455 0.14143,0.541455 h 0.550385 c 0.07835,0 0.141431,-0.241468 0.141431,-0.541455 v -1.034523 h 1.034688 c 0.299991,0 0.54145,-0.06308 0.54145,-0.141435 v -0.550543 c 0,-0.07835 -0.241459,-0.141432 -0.54145,-0.141432 h -1.034688 v -1.034523 c 0,-0.299995 -0.06309,-0.541451 -0.141431,-0.541451 z" />
      <circle
         r="3.0532229"
         cy="76.15271"
         cx="-57.036583"
         id="circle1781"
         style="font-variation-settings:'wdth' 100, 'wght' 700;fill:#ccaaff;fill-opacity:1;stroke:none;stroke-width:3.03132;stroke-linecap:round;stroke-linejoin:round;paint-order:fill markers stroke" />
      <circle
         style="font-variation-settings:'wdth' 100, 'wght' 700;fill:#170b28;fill-opacity:1;stroke:none;stroke-width:3.03132;stroke-linecap:round;stroke-linejoin:round;paint-order:fill markers stroke"
         id="circle1783"
         cx="-57.036583"
         cy="74.691368"
         r="0.7054708" />
      <circle
         r="0.7054708"
         cy="77.614037"
         cx="-57.036583"
         id="circle1785"
         style="font-variation-settings:'wdth' 100, 'wght' 700;fill:#170b28;fill-opacity:1;stroke:none;stroke-width:3.03132;stroke-linecap:round;stroke-linejoin:round;paint-order:fill markers stroke" />
      <circle
         r="0.7054708"
         cy="55.575249"
         cx="76.15271"
         id="circle1787"
         style="font-variation-settings:'wdth' 100, 'wght' 700;fill:#170b28;fill-opacity:1;stroke:none;stroke-width:3.03132;stroke-linecap:round;stroke-linejoin:round;paint-order:fill markers stroke"
         transform="rotate(90)" />
      <circle
         style="font-variation-settings:'wdth' 100, 'wght' 700;fill:#170b28;fill-opacity:1;stroke:none;stroke-width:3.03132;stroke-linecap:round;stroke-linejoin:round;paint-order:fill markers stroke"
         id="circle1789"
         cx="76.15271"
         cy="58.497913"
         r="0.7054708"
         transform="rotate(90)" />
      <path
         style="font-variation-settings:'wdth' 100, 'wght' 700;fill:#ccaaff;fill-opacity:1;stroke:none;stroke-width:3.03129;stroke-linecap:round;stroke-linejoin:round;paint-order:fill markers stroke"
         d="m -77.997395,73.443416 c -0.303368,0.369823 -0.602265,0.803042 -0.894051,1.308432 -2.249293,3.89589 -3.376476,10.918797 -1.392874,12.064029 0.859962,0.496501 2.38445,-0.230834 4.139447,-1.506263 -1.144285,0.6037 -2.104489,0.829151 -2.742221,0.460955 -2.03452,-1.174628 -1.180839,-7.806241 0.889699,-12.327153 z"
         id="path1791" />
      <path
         id="path1793"
         d="m -54.558857,73.443416 c 0.303368,0.369822 0.602265,0.803045 0.894052,1.308432 2.249293,3.895892 3.376475,10.918799 1.392874,12.06403 -0.859963,0.496501 -2.384451,-0.230833 -4.139448,-1.506264 1.144285,0.603701 2.10449,0.829152 2.742221,0.460955 2.034521,-1.174628 1.18084,-7.806242 -0.889699,-12.327153 z"
         style="font-variation-settings:'wdth' 100, 'wght' 700;fill:#ccaaff;fill-opacity:1;stroke:none;stroke-width:3.03129;stroke-linecap:round;stroke-linejoin:round;paint-order:fill markers stroke" />
      <path
         style="font-variation-settings:'wdth' 100, 'wght' 700;fill:#ccaaff;fill-opacity:1;stroke:none;stroke-width:3.03129;stroke-linecap:round;stroke-linejoin:round;paint-order:fill markers stroke"
         d="m -72.900589,71.953476 c 0.01024,0.0062 0.02044,0.01135 0.03069,0.01763 2.216004,1.356825 4.226405,2.619554 6.591777,2.619473 2.36542,8.1e-5 4.37577,-1.262648 6.591776,-2.619473 0.01025,-0.0063 0.02044,-0.01146 0.03069,-0.01763 -0.05434,0.02003 -0.108686,0.03994 -0.163229,0.06203 -2.171428,0.879188 -4.141396,1.697402 -6.459234,1.697349 -2.317791,5.3e-5 -4.287809,-0.818161 -6.459236,-1.697349 -0.05454,-0.02208 -0.108885,-0.04199 -0.163228,-0.06203 z"
         id="path1795" />
    </g>
  </g>
</svg>
